<?xml version="1.0" encoding="utf-8"?>
<!-- Generator: Adobe Illustrator 15.0.2, SVG Export Plug-In . SVG Version: 6.00 Build 0)  -->
<!DOCTYPE svg PUBLIC "-//W3C//DTD SVG 1.1//EN" "http://www.w3.org/Graphics/SVG/1.1/DTD/svg11.dtd">
<svg version="1.1" id="Icons" xmlns="http://www.w3.org/2000/svg" xmlns:xlink="http://www.w3.org/1999/xlink" x="0px" y="0px"
	 width="32px" height="32px" viewBox="34 34 32 32" enable-background="new 34 34 32 32" xml:space="preserve">
<path id="Github__x28_alt_x29_" fill="#808080" d="M57.423,37.701c0.418,0.947,0.688,2.52,0.285,3.672
	c1.648,1.408,2.215,4.83,1.42,7.626c2.35,0.179,5.147-0.086,6.955,0.634c-1.689-0.215-3.995-0.642-6.175-0.494
	c-0.412,0.027-1.023-0.015-0.994,0.564c2.521,0.198,5.028,0.414,7.099,1.06c-2.054-0.335-4.547-0.845-7.099-0.917
	c-1.054,2.081-3.176,3.104-6.104,3.318c0.314,0.685,0.919,0.945,1.065,2.048c0.22,1.645-0.344,4.056,0.212,5.153
	c0.267,0.526,0.702,0.539,0.995,0.99c-0.718,0.848-2.496-0.095-2.698-0.99c-0.347-1.531,0.527-3.904-0.425-4.942
	c0.066,1.669-0.396,4.016,0.07,5.507c0.184,0.587,0.714,0.814,0.567,1.344c-3.333,0.338-1.939-4.316-2.484-7.063
	c-0.503,0.037-0.282,0.754-0.284,1.061c-0.015,2.682,0.549,6.361-2.342,6.003c-0.084-0.564,0.388-0.757,0.567-1.271
	c0.528-1.509-0.098-3.757,0.144-5.579c-1.104,0.832,0.115,3.737-0.568,5.226c-0.394,0.857-1.663,1.229-2.626,0.848
	c0.125-0.64,0.784-0.536,1.064-1.131c0.39-0.829,0.002-2.022,0.142-3.248c-2.042,0.408-3.626-0.058-4.402-1.341
	c-0.347-0.576-0.433-1.256-0.852-1.765c-0.417-0.512-1.083-0.579-1.277-1.271c2.529-0.609,2.626,2.602,4.898,2.682
	c0.696,0.025,1.059-0.2,1.703-0.354c0.181-0.81,0.566-1.413,1.135-1.835c-2.826-0.388-5.161-1.268-6.246-3.389
	c-2.569,0.127-4.92,0.469-7.098,0.987c1.977-0.718,4.415-0.975,7.028-1.06c-0.154-0.925-1.504-0.671-2.342-0.634
	c-1.557,0.068-3.518,0.262-4.756,0.494c1.794-0.639,4.313-0.559,6.744-0.564c-0.743-2.332-0.486-6.035,1.136-7.414
	c-0.46-1.159-0.317-3.053,0.284-3.955c1.81,0.082,2.908,0.871,4.045,1.624c1.411-0.401,2.895-0.6,4.827-0.494
	c0.813,0.044,1.658,0.41,2.271,0.352c0.6-0.056,1.263-0.73,1.846-0.987C55.912,37.86,56.555,37.732,57.423,37.701z"/>
</svg>
