<?xml version="1.0" encoding="utf-8"?>
<!-- Generator: Adobe Illustrator 15.0.2, SVG Export Plug-In . SVG Version: 6.00 Build 0)  -->
<!DOCTYPE svg PUBLIC "-//W3C//DTD SVG 1.1//EN" "http://www.w3.org/Graphics/SVG/1.1/DTD/svg11.dtd">
<svg version="1.1" id="twitter-bird" xmlns="http://www.w3.org/2000/svg" xmlns:xlink="http://www.w3.org/1999/xlink" x="0px"
	 y="0px" width="32px" height="32px" viewBox="184 184 32 32" enable-background="new 184 184 32 32" xml:space="preserve">
<path fill="#808080" d="M184,204.944c0,0,4.2,6.363,12.746,6.219c5.508-0.164,13.327-2.6,15.417-10.638c0,0,2.246,0.383,3.837-1.362
	c-2.173,0.301-3.618-0.383-3.618-0.383s2.845-0.081,3.473-1.764c-1.682,0.729-3.764,0.109-3.764,0.109s-0.981-6.018-6.964-6.236
	c0,0,3.197-0.651,2.697-1.388c-0.4-0.536-2.625,0.461-2.625,0.461s1.24-0.546,1.213-1.127c-1.254,0.146-2.405,1.072-2.405,1.072
	s0.351-0.563,0.357-0.8c-2.988,1.661-5.019,7.846-5.019,7.846s-0.757-0.84-2.018-1.749c-3.042-1.794-8.654-3.915-8.654-3.915
	s-0.376,2.314,2.618,4.012c-1.224,0.098-1.842,0.255-1.842,0.255s0,2.46,3.57,3.261c-1.655,0.061-2.2,0.885-2.2,0.885
	s0.934,2.194,3.867,2.012c-2.388,1.236-0.836,2.922,1.115,2.739C189.521,210.077,184,204.944,184,204.944z"/>
</svg>
